<?xml version="1.0" standalone="no"?>
<!DOCTYPE svg PUBLIC "-//W3C//DTD SVG 20010904//EN"
 "http://www.w3.org/TR/2001/REC-SVG-20010904/DTD/svg10.dtd">
<svg version="1.0" xmlns="http://www.w3.org/2000/svg"
 width="512.000000pt" height="512.000000pt" viewBox="0 0 512.000000 512.000000"
 preserveAspectRatio="xMidYMid meet">

<g transform="translate(0.000000,512.000000) scale(0.100000,-0.100000)"
fill="#000000" stroke="none">
<path d="M4310 4825 l-185 -185 -199 0 -199 0 -108 -106 -107 -106 -182 146
c-135 108 -189 146 -210 146 -19 0 -71 -33 -174 -111 l-148 -111 -227 151
c-124 83 -236 151 -249 151 -17 0 -493 -229 -511 -246 -5 -4 60 -144 66 -144
2 0 101 49 221 109 l217 108 230 -153 c149 -100 239 -154 256 -154 17 0 73 36
172 110 l146 109 186 -149 c149 -119 194 -150 218 -150 25 0 50 20 152 120
l121 120 199 0 199 0 208 207 c114 114 208 212 208 218 0 13 -92 105 -105 105
-6 0 -93 -83 -195 -185z"/>
<path d="M2105 4375 l-25 -24 0 -311 0 -311 25 -24 c23 -24 28 -25 175 -25
147 0 152 1 175 25 l25 24 0 311 0 311 -25 24 c-23 24 -28 25 -175 25 -147 0
-152 -1 -175 -25z m215 -335 l0 -200 -40 0 -40 0 0 200 0 200 40 0 40 0 0
-200z"/>
<path d="M2585 4215 l-25 -24 0 -591 0 -591 25 -24 c23 -24 28 -25 175 -25
147 0 152 1 175 25 l25 24 0 591 0 591 -25 24 c-23 24 -28 25 -175 25 -147 0
-152 -1 -175 -25z"/>
<path d="M4025 4215 l-25 -24 0 -671 0 -671 25 -24 c23 -24 28 -25 175 -25
147 0 152 1 175 25 l25 24 0 671 0 671 -25 24 c-23 24 -28 25 -175 25 -147 0
-152 -1 -175 -25z m215 -695 l0 -560 -40 0 -40 0 0 560 0 560 40 0 40 0 0
-560z"/>
<path d="M3065 3895 l-25 -24 0 -311 0 -311 25 -24 c23 -24 28 -25 175 -25
147 0 152 1 175 25 l25 24 0 311 0 311 -25 24 c-23 24 -28 25 -175 25 -147 0
-152 -1 -175 -25z"/>
<path d="M3545 3895 l-25 -24 0 -671 0 -671 25 -24 c23 -24 28 -25 175 -25
147 0 152 1 175 25 l25 24 0 671 0 671 -25 24 c-23 24 -28 25 -175 25 -147 0
-152 -1 -175 -25z m215 -695 l0 -560 -40 0 -40 0 0 560 0 560 40 0 40 0 0
-560z"/>
<path d="M1205 3426 c-112 -36 -193 -104 -241 -202 -26 -54 -29 -68 -29 -164
0 -99 2 -109 32 -167 28 -54 31 -69 26 -112 -9 -78 12 -134 74 -201 l53 -58 0
-124 0 -124 -57 -56 -58 -56 -155 -5 c-124 -4 -168 -9 -220 -27 -184 -62 -320
-179 -400 -345 -108 -224 -87 -478 55 -677 l35 -48 0 -450 0 -450 80 0 80 0 0
40 0 40 313 0 c309 0 314 0 373 -24 141 -58 95 -56 1701 -56 1008 0 1481 3
1494 10 24 14 599 1160 599 1195 0 14 -11 37 -25 50 l-24 25 -626 0 c-416 0
-633 -4 -646 -10 -11 -6 -53 -78 -94 -160 l-75 -150 -194 0 -194 0 -292 423
c-161 232 -315 445 -343 474 -104 107 -211 143 -426 143 l-145 0 -48 47 -47
47 47 27 c59 34 117 97 146 158 20 43 21 65 24 330 l3 285 29 33 c88 100 53
262 -71 330 -31 16 -65 18 -374 20 -256 2 -350 -1 -380 -11z m391 -437 c139
-28 183 -31 227 -14 16 7 17 -8 17 -217 0 -215 -1 -227 -23 -268 -26 -50 -90
-90 -141 -90 -60 1 -142 53 -159 103 -3 8 -27 1 -75 -22 -40 -19 -72 -38 -72
-41 0 -3 13 -27 30 -53 31 -50 93 -100 153 -124 20 -8 37 -17 37 -19 0 -9
-142 -184 -149 -184 -4 0 -41 47 -84 104 l-77 103 0 163 0 162 -65 67 c-68 70
-76 92 -48 123 12 14 31 18 81 18 l65 0 64 63 c59 60 63 66 63 110 0 26 2 47
3 47 2 0 71 -14 153 -31z m-332 -970 l68 -91 -48 -49 c-26 -26 -50 -46 -54
-44 -4 2 -26 54 -50 115 l-43 110 23 25 c13 14 26 25 29 25 4 0 37 -41 75 -91z
m436 -69 c-24 -61 -46 -113 -50 -115 -4 -2 -28 17 -54 44 l-47 47 73 92 73 92
24 -25 25 -24 -44 -111z m1160 -791 c68 -99 132 -185 142 -190 9 -5 100 -9
202 -9 l186 0 -89 -178 -89 -178 -74 -17 c-40 -9 -94 -20 -120 -23 -43 -6 -48
-5 -48 13 0 25 -192 266 -255 320 -69 59 -163 103 -261 122 -46 9 -83 19 -81
22 3 9 350 299 357 299 3 0 61 -82 130 -181z m1650 -359 l-240 -480 -510 0
-510 0 240 480 240 480 510 0 510 0 -240 -480z m-2359 208 c-74 -14 -71 -17
-71 79 l0 88 54 -80 53 -80 -36 -7z m-888 -16 c77 -97 78 -93 -27 -107 l-48
-7 6 -46 c17 -117 15 -114 50 -108 17 3 274 38 571 77 593 79 601 79 710 28
55 -25 143 -109 218 -207 l48 -62 -106 0 c-103 0 -107 1 -185 40 -44 22 -88
40 -99 40 -10 0 -181 -65 -380 -145 -359 -143 -460 -175 -561 -175 -139 0
-321 68 -421 157 -65 59 -241 263 -237 275 4 10 380 327 388 327 3 0 36 -39
73 -87z m1827 -632 l-20 -40 -523 1 -522 0 95 39 95 39 448 0 447 1 -20 -40z"/>
</g>
</svg>
