<?xml version="1.0" standalone="no"?>
<!DOCTYPE svg PUBLIC "-//W3C//DTD SVG 20010904//EN"
 "http://www.w3.org/TR/2001/REC-SVG-20010904/DTD/svg10.dtd">
<svg version="1.0" xmlns="http://www.w3.org/2000/svg"
 width="512.000000pt" height="512.000000pt" viewBox="0 0 512.000000 512.000000"
 preserveAspectRatio="xMidYMid meet">

<g transform="translate(0.000000,512.000000) scale(0.100000,-0.100000)"
fill="#000000" stroke="none">
<path d="M1351 4950 c-458 -64 -845 -339 -1049 -746 -42 -84 -96 -242 -118
-349 -26 -126 -26 -384 0 -510 115 -555 526 -966 1081 -1081 126 -26 384 -26
510 0 555 115 966 526 1081 1081 14 67 18 133 18 255 0 187 -15 281 -71 444
-117 337 -359 613 -679 774 -85 43 -249 98 -346 117 -98 19 -337 28 -427 15z
m411 -339 c186 -49 328 -126 459 -249 104 -98 171 -184 223 -288 155 -309 155
-639 0 -948 -52 -104 -119 -190 -223 -288 -179 -168 -400 -262 -647 -275 -307
-16 -588 97 -806 325 -88 92 -123 141 -176 248 -160 319 -147 683 37 998 54
92 194 245 285 310 121 86 279 153 429 182 102 19 319 12 419 -15z"/>
<path d="M1441 4453 c-27 -14 -84 -92 -291 -403 -166 -249 -259 -399 -264
-422 -4 -22 -1 -51 7 -75 7 -21 127 -208 265 -415 219 -328 257 -380 291 -398
22 -11 54 -20 71 -20 17 0 49 9 71 20 34 18 72 70 291 398 138 207 258 394
265 415 8 24 11 53 7 75 -5 23 -98 173 -264 422 -280 420 -280 420 -372 420
-23 0 -58 -8 -77 -17z"/>
<path d="M3133 4459 c-111 -55 -117 -210 -11 -274 30 -18 56 -21 258 -25 213
-5 228 -7 275 -30 64 -31 124 -91 155 -155 23 -46 25 -64 28 -220 l4 -170
-119 116 c-91 91 -128 120 -160 130 -116 34 -228 -77 -194 -193 11 -36 54 -85
284 -315 234 -234 277 -272 310 -278 88 -17 91 -15 380 273 148 147 275 279
283 294 46 87 -18 208 -119 223 -68 10 -108 -13 -234 -137 l-113 -112 0 170
c0 195 -12 257 -67 372 -54 112 -168 225 -283 281 -123 60 -188 71 -430 71
-188 0 -208 -2 -247 -21z"/>
<path d="M3431 2870 c-458 -64 -845 -339 -1049 -746 -42 -84 -96 -242 -118
-349 -26 -126 -26 -384 0 -510 115 -555 526 -966 1081 -1081 126 -26 384 -26
510 0 555 115 966 526 1081 1081 14 67 18 133 18 255 0 187 -15 281 -71 444
-117 337 -359 613 -679 774 -85 43 -249 98 -346 117 -98 19 -337 28 -427 15z
m411 -339 c186 -49 328 -126 459 -249 104 -98 171 -184 223 -288 155 -309 155
-639 0 -948 -52 -104 -119 -190 -223 -288 -179 -168 -400 -262 -647 -275 -307
-16 -588 97 -806 325 -88 92 -123 141 -176 248 -160 319 -147 683 37 998 54
92 194 245 285 310 121 86 279 153 429 182 102 19 319 12 419 -15z"/>
<path d="M3530 2378 c-59 -30 -90 -89 -90 -169 l0 -56 -37 -7 c-63 -10 -155
-60 -206 -111 -214 -218 -111 -582 188 -660 41 -10 107 -15 213 -15 149 0 154
-1 177 -25 33 -32 33 -78 0 -110 l-24 -25 -268 0 c-259 0 -270 -1 -313 -22
-48 -25 -90 -89 -90 -138 0 -49 42 -113 90 -138 38 -19 60 -22 157 -22 l113 0
0 -53 c0 -76 32 -136 90 -164 24 -13 56 -23 70 -23 14 0 46 10 70 23 59 29 90
88 90 168 l0 56 38 7 c61 10 154 60 205 112 214 217 110 581 -188 659 -41 10
-107 15 -213 15 -149 0 -154 1 -177 25 -16 15 -25 36 -25 55 0 19 9 40 25 55
l24 25 268 0 c259 0 270 1 313 23 48 24 90 88 90 137 0 49 -42 113 -90 138
-38 19 -60 22 -157 22 l-113 0 0 53 c0 76 -32 136 -90 165 -24 12 -56 22 -70
22 -14 0 -46 -10 -70 -22z"/>
<path d="M1054 2064 c-16 -8 -148 -133 -291 -277 -220 -220 -263 -269 -274
-304 -34 -117 78 -228 194 -194 32 10 69 39 160 129 l117 116 0 -160 c0 -192
14 -267 72 -383 74 -149 207 -263 378 -322 59 -20 88 -23 301 -27 210 -4 241
-2 273 13 112 53 126 198 28 273 l-35 27 -231 5 c-219 5 -234 7 -281 30 -64
31 -124 91 -155 155 -23 46 -25 64 -28 220 l-4 170 119 -116 c135 -134 170
-152 245 -129 52 15 105 69 114 115 16 85 12 90 -274 379 -147 147 -281 274
-299 282 -42 18 -90 17 -129 -2z"/>
</g>
</svg>
